<svg width="66" height="65" viewBox="0 0 66 65" fill="none" xmlns="http://www.w3.org/2000/svg">
<path d="M42.6254 3.91669C40.7843 3.91553 38.9708 4.36614 37.3486 5.22913C36.1005 5.89312 34.9952 6.78549 34.0905 7.85579C31.6572 6.91169 29.0401 6.50011 26.4212 6.65518C23.393 6.83448 20.4587 7.76566 17.8916 9.36369C15.3243 10.9618 13.2069 13.1754 11.7387 15.8003C10.3589 18.267 9.59523 21.0206 9.50838 23.8328C7.82636 24.6363 6.40384 25.905 5.42297 27.4985C4.25145 29.4018 3.78394 31.6487 4.10302 33.8564C4.42207 36.0639 5.50695 38.0901 7.16757 39.5925C8.52645 40.822 10.2024 41.6391 11.9962 41.9639L14.6387 57.5689C14.6388 57.5691 14.6388 57.5694 14.6388 57.5696C14.8058 58.5577 15.3224 59.4506 16.0907 60.0922C16.8586 60.7334 17.8289 61.0829 18.8286 61.0834H18.8293H47.1708L47.1715 61.0834C48.1711 61.0829 49.1414 60.7334 49.9094 60.0922C50.6778 59.4505 51.1945 58.5572 51.3614 57.5689L54.2135 40.7386C56.4857 39.643 58.4187 37.9519 59.7944 35.8404C61.3246 33.4919 62.0914 30.7368 61.9894 27.9438C61.8875 25.1509 60.9218 22.4577 59.225 20.2243C57.787 18.3316 55.8826 16.8463 53.7043 15.9016C53.8205 14.6547 53.72 13.3947 53.4044 12.1764C52.9975 10.6056 52.2435 9.14452 51.1978 7.89719C50.1522 6.64995 48.8411 5.64746 47.3593 4.95995C45.8778 4.27256 44.2613 3.9166 42.6254 3.91669ZM42.6254 3.91669C42.6256 3.91669 42.6259 3.91669 42.6261 3.91669L42.625 5.41669L42.6249 3.91669C42.6251 3.91669 42.6253 3.91669 42.6254 3.91669ZM40.4783 24.2089C42.2015 24.7213 44.0586 24.5584 45.6639 23.7533L46.0887 23.5596C46.8175 23.267 47.6036 23.1348 48.3913 23.1732C49.1886 23.212 49.9663 23.4244 50.6682 23.7941C51.3701 24.1638 51.978 24.6811 52.4494 25.3073C52.9207 25.9334 53.2441 26.6532 53.3977 27.4144C53.5513 28.1755 53.5317 28.9606 53.3401 29.7135C53.1485 30.4666 52.7893 31.1701 52.2868 31.7729C51.7843 32.3759 51.1508 32.8633 50.4309 33.1986C49.7109 33.534 48.9233 33.7084 48.125 33.7084H13.7524C13.4518 33.7071 13.1643 33.6015 12.9401 33.4148C12.716 33.2281 12.5701 32.9734 12.5222 32.698C12.4744 32.4228 12.5262 32.1386 12.6714 31.8942C12.817 31.6493 13.0489 31.4577 13.3307 31.3588L13.3535 31.3508L13.3761 31.3421L13.7886 31.1823L13.8192 31.1704L13.8493 31.1572C15.1027 30.6075 16.1676 29.7049 16.9085 28.5586C17.6497 27.412 18.0329 26.0736 18.008 24.7105L18.0004 24.2834L18.0128 23.802C18.2665 18.9898 22.3913 15.0417 27.5 15.0417H27.5005C29.3234 15.0411 31.1065 15.5558 32.638 16.5223C34.1692 17.4887 35.3835 18.8653 36.1397 20.4863L36.153 20.5149L36.1676 20.5429L36.3601 20.9139L36.3727 20.9382L36.3862 20.9621C37.2746 22.5317 38.744 23.6932 40.4783 24.2089ZM26.25 52.6667V42.125H28.75V52.6667H26.25ZM37.25 52.6667V42.125H39.75V52.6667H37.25Z" stroke="white" stroke-width="3"/>
</svg>
