<svg width="150" height="150" viewBox="0 0 150 150" fill="none" xmlns="http://www.w3.org/2000/svg">
<circle cx="75" cy="75" r="74.5" fill="white" stroke="#6A441E"/>
<path d="M98.6496 75.8495C105.039 75.8495 110.221 70.6884 110.221 64.3195C110.221 57.9522 105.039 52.7895 98.6496 52.7895C92.2553 52.7895 87.0729 57.953 87.0729 64.3195C87.0721 70.6884 92.2553 75.8495 98.6496 75.8495Z" fill="#6A441E"/>
<path d="M72.5777 77.9848C78.3306 77.9848 82.9942 73.3384 82.9942 67.6069C82.9942 61.8753 78.3306 57.2289 72.5777 57.2289C66.8249 57.2289 62.1613 61.8753 62.1613 67.6069C62.1613 73.3384 66.8249 77.9848 72.5777 77.9848Z" fill="#6A441E"/>
<path d="M48.9355 79.9069C54.1122 79.9069 58.3106 75.7282 58.3106 70.5704C58.3106 65.411 54.1122 61.2306 48.9355 61.2306C43.7572 61.2306 39.5604 65.411 39.5604 70.5704C39.5604 75.729 43.7564 79.9069 48.9355 79.9069ZM48.9355 82.0397C42.9905 82.0397 38.6322 87.2574 38.6322 92.6473V96.2757C38.6322 96.7891 39.052 97.2105 39.5686 97.2105H58.2999C58.8181 97.2105 59.238 96.7891 59.238 96.2757V92.6473C59.238 87.2574 54.8797 82.0397 48.9355 82.0397ZM72.5777 80.3514C65.9726 80.3514 61.1289 86.1496 61.1289 92.1397V96.1716C61.1289 96.7415 61.5955 97.2105 62.1695 97.2105H82.9827C83.2586 97.2108 83.5234 97.1015 83.7188 96.9067C83.9142 96.7119 84.0243 96.4475 84.0249 96.1716V92.1397C84.0258 86.1504 79.1828 80.3514 72.5777 80.3514ZM98.648 78.4793C91.309 78.4793 85.9282 84.9212 85.9282 91.578V96.0568C85.9282 96.6907 86.4464 97.2105 87.0844 97.2105H110.208C110.85 97.2105 111.368 96.6898 111.368 96.0568V91.578C111.368 84.922 105.987 78.4793 98.648 78.4793Z" fill="#6A441E"/>
</svg>
