<svg width="150" height="150" viewBox="0 0 150 150" fill="none" xmlns="http://www.w3.org/2000/svg">
<circle cx="75" cy="75" r="74.5" stroke="#6A441E"/>
<path d="M75 111C55.1486 111 39 94.8514 39 75C39 55.1486 55.1486 39 75 39C94.8514 39 111 55.1486 111 75C111 94.8514 94.8514 111 75 111ZM75 44.1429C57.9771 44.1429 44.1429 57.9771 44.1429 75C44.1429 92.0229 57.9771 105.857 75 105.857C92.0229 105.857 105.857 92.0229 105.857 75C105.857 57.9771 92.0229 44.1429 75 44.1429Z" fill="#6A441E"/>
<path d="M85.43 88C84.9671 88 84.5042 87.8954 84.0928 87.6338L71.2346 79.7877C70.8537 79.5549 70.5394 79.2249 70.3228 78.8303C70.1063 78.4357 69.995 77.9903 70.0002 77.5385V56.6154C70.0002 55.1508 71.1317 54 72.5718 54C74.0119 54 75.1435 55.1508 75.1435 56.6154V76.0738L86.7673 83.1354C87.2461 83.4338 87.6161 83.8829 87.8214 84.4144C88.0266 84.946 88.0558 85.5312 87.9047 86.0812C87.7535 86.6312 87.4301 87.1161 86.9835 87.4623C86.537 87.8086 85.9916 87.9974 85.43 88Z" fill="#6A441E"/>
</svg>
